<svg
  xmlns="http://www.w3.org/2000/svg"
  xmlns:xlink="http://www.w3.org/1999/xlink"
  viewBox="0 0 739 739"
  shape-rendering="geometricPrecision"
  text-rendering="geometricPrecision"
>
  <rect
    id="outline"
    width="700"
    height="700"
    rx="0"
    ry="0"
    transform="translate(19.5 19.5)"
    fill="#fff"
    stroke="#4e2d83"
    stroke-width="40"
    stroke-linecap="round"
    stroke-linejoin="round"
  />
  <path
    id="note"
    d="M430.87089,441.25674c0-34.67638,36.56513-62.78715,81.6705-62.78715c19.07027,0,36.61393,5.02493,50.51297,13.44648v-176.84219L326.54037,269.30107v219.16281c0,1.96714-.36454,3.84912-1.02974,5.58208.67767,3.25585,1.02974,6.59527,1.02974,9.99792c0,34.67638-36.56513,62.78715-81.6705,62.78715s-81.6705-28.11076-81.6705-62.78715s36.56513-62.78715,81.6705-62.78715c19.07027,0,36.61393,5.02493,50.51297,13.44648v-282.39139c0-8.6046,6.97485-15.58,15.57877-15.58c0,0,.00001,0,.00001,0l260.73-61.15889c2.09013-1.04209,4.44737-1.62826,6.94151-1.62826c8.60392,0,15.57877,6.9754,15.57877,15.58v316.15206c0,1.96714-.36454,3.84912-1.02974,5.58208.67767,3.25585,1.02974,6.59528,1.02974,9.99792c0,34.67638-36.56513,62.78715-81.6705,62.78715s-81.6705-28.11076-81.6705-62.78715l-.00001.00001ZM326.54038,229.56361l236.51399-55.47859v-35.49719L326.54038,192.81502v36.74859Z"
    transform="translate(-9.205635 39.112138)"
    fill="#4e2d83"
    stroke-width="0"
  />
</svg>