<svg
  xmlns="http://www.w3.org/2000/svg"
  xmlns:xlink="http://www.w3.org/1999/xlink"
  viewBox="0 0 739 739"
  shape-rendering="geometricPrecision"
  text-rendering="geometricPrecision"
>
  <rect
    id="image-outline"
    width="700"
    height="700"
    rx="0"
    ry="0"
    transform="translate(19.5 19.5)"
    fill="#fff"
    stroke="#4e2d83"
    stroke-width="40"
    stroke-linecap="round"
    stroke-linejoin="round"
  />
  <path
    id="image-picture"
    d="M168.63612,265.32155c0-21.53911,17.4609-39,39-39l323.72776.00001c21.53911,0,39,17.4609,39,39l-.00001,208.35689c0,21.53911-17.4609,39-39,39l-323.72776-.00001c-21.53911,0-39-17.4609-39-39l.00001-208.35689ZM382.8176,429.79533l71.64457-65.92037l74.77051,83.76567l3.49518-3.11985-74.81759-83.81842.06-.05521-3.65806-3.97571-.00089-.001-3.49518,3.11985.04709.05275-34.22744,31.49276-69.3809-77.72768.08483-.07889-3.8554-4.1453-.00002-.00003-4.03145,3.59853.07366.08252L187.87024,454.11524l3.8554,4.1453l151.57144-140.9714l69.36158,77.70603-33.50001,30.82345l3.65895,3.97671Zm91.21463-117.50978c13.54878,0,24.53224-10.98346,24.53224-24.53224s-10.98346-24.53224-24.53224-24.53224-24.53224,10.98346-24.53224,24.53224s10.98346,24.53224,24.53224,24.53224Z"
    fill="#4e2d83"
    stroke-width="0"
    stroke-linecap="round"
    stroke-linejoin="round"
  />
</svg>